<svg width="49" height="46" viewBox="0 0 49 46" fill="none" xmlns="http://www.w3.org/2000/svg">
<path d="M32.0159 24.633H1.57456C0.705399 24.633 0 23.8805 0 22.9534C0 22.0263 0.705399 21.2739 1.57456 21.2739H32.0159C32.8851 21.2739 33.5905 22.0263 33.5905 22.9534C33.5905 23.8805 32.8851 24.633 32.0159 24.633Z" fill="white"/>
<path d="M23.92 33.5904C23.529 33.5904 23.1384 33.4359 22.8409 33.124C22.2446 32.5026 22.2446 31.4951 22.8409 30.8733L29.9045 23.5133L22.8409 16.1529C22.2446 15.5315 22.2446 14.5236 22.8409 13.9022C23.4377 13.2808 24.4045 13.2808 25.0009 13.9022L33.1432 22.387C33.7396 23.0084 33.7396 24.0159 33.1432 24.6373L25.0009 33.1217C24.7016 33.4359 24.311 33.5904 23.92 33.5904V33.5904Z" fill="white"/>
<path d="M25.0062 45.907C15.4324 45.907 6.98027 40.1937 3.46929 31.3501C3.14959 30.5489 3.54903 29.6391 4.35907 29.322C5.16681 29.0091 6.08625 29.3992 6.40596 30.2069C9.43738 37.842 16.739 42.777 25.0062 42.777C36.0249 42.777 44.9909 33.8833 44.9909 22.9535C44.9909 12.0237 36.0249 3.13 25.0062 3.13C16.739 3.13 9.43738 8.06496 6.40596 15.7001C6.08394 16.5078 5.16681 16.8979 4.35907 16.585C3.54903 16.2678 3.14959 15.3581 3.46929 14.5569C6.98027 5.71325 15.4324 0 25.0062 0C37.7648 0 48.1463 10.2978 48.1463 22.9535C48.1463 35.6091 37.7648 45.907 25.0062 45.907V45.907Z" fill="white"/>
</svg>
