<svg width="34" height="32" viewBox="0 0 34 32" fill="none" xmlns="http://www.w3.org/2000/svg">
<path d="M22.3171 17.1707H1.09757C0.491707 17.1707 0 16.6462 0 16C0 15.3537 0.491707 14.8292 1.09757 14.8292H22.3171C22.9229 14.8292 23.4146 15.3537 23.4146 16C23.4146 16.6462 22.9229 17.1707 22.3171 17.1707Z" fill="white"/>
<path d="M16.6737 23.4146C16.4012 23.4146 16.1289 23.3069 15.9216 23.0895C15.5059 22.6563 15.5059 21.954 15.9216 21.5206L20.8454 16.3902L15.9216 11.2596C15.5059 10.8264 15.5059 10.1239 15.9216 9.69072C16.3375 9.25755 17.0115 9.25755 17.4272 9.69072L23.1029 15.6051C23.5186 16.0383 23.5186 16.7406 23.1029 17.1737L17.4272 23.0879C17.2186 23.3069 16.9463 23.4146 16.6737 23.4146V23.4146Z" fill="white"/>
<path d="M17.4309 32C10.7573 32 4.86565 28.0175 2.41828 21.853C2.19543 21.2944 2.47386 20.6603 3.03852 20.4393C3.60156 20.2211 4.24247 20.4931 4.46532 21.0561C6.57841 26.3782 11.6681 29.8182 17.4309 29.8182C25.1116 29.8182 31.3614 23.6187 31.3614 16C31.3614 8.38126 25.1116 2.18181 17.4309 2.18181C11.6681 2.18181 6.57841 5.62177 4.46532 10.9439C4.24086 11.5069 3.60156 11.7789 3.03852 11.5607C2.47386 11.3397 2.19543 10.7056 2.41828 10.147C4.86565 3.98249 10.7573 0 17.4309 0C26.3244 0 33.5609 7.17823 33.5609 16C33.5609 24.8218 26.3244 32 17.4309 32V32Z" fill="white"/>
</svg>
